<?xml version="1.0" encoding="UTF-8"?>
<svg id="Capa_2" data-name="Capa 2" xmlns="http://www.w3.org/2000/svg" viewBox="0 0 265.42 82.55">
  <defs>
    <style>
      .cls-1 {
        fill: #af0119;
      }

      .cls-2 {
        fill: #fff;
      }
    </style>
  </defs>
  <g id="Capa_1-2" data-name="Capa 1">
    <g>
      <polygon class="cls-1" points="122.67 .21 84.64 51.53 90.37 51.53 92.73 51.53 126.82 5.49 122.67 .21"/>
      <path class="cls-1" d="M122.68.41l-37.79,50.99h5.48s2.31,0,2.31,0L126.67,5.49l-3.99-5.08ZM84.39,51.65l.15-.2L122.67,0l4.31,5.49-.06.08-34.13,46.09h-8.41Z"/>
      <polygon class="cls-1" points="153.34 16 141.71 31.47 129.86 16.14 127.84 19.08 103.79 51.51 109.28 51.53 111.85 51.52 129.73 27.37 137.27 37.37 126.6 51.56 133.67 51.45 135.3 51.44 153.39 27.04 171.42 51.27 172.98 51.28 179.51 51.27 153.34 16"/>
      <path class="cls-1" d="M129.73,27.16l.1.13,7.6,10.08-10.57,14.05,8.39-.12,18.15-24.48.1.13,17.99,24.18h1.5s6.28,0,6.28,0l-25.92-34.93-11.63,15.46-.1-.13-11.74-15.19-1.93,2.8-23.91,32.24,5.25.02h2.5s17.94-24.24,17.94-24.24ZM126.35,51.69l10.76-14.31-7.38-9.79-17.82,24.07h-2.63s-5.75-.01-5.75-.01l.15-.2,24.05-32.43,2.12-3.08,11.85,15.33,11.63-15.46,26.42,35.6h-6.78s-1.63,0-1.63,0l-.04-.05-17.93-24.09-18.02,24.31h-1.7s-7.32.13-7.32.13Z"/>
      <rect class="cls-2" y="65.27" width="6.45" height="16.96"/>
      <polygon class="cls-2" points="9.83 65.27 17.08 65.27 26.92 74.91 26.92 65.27 33.35 65.27 33.35 82.23 26.88 82.23 16.25 71.95 16.25 82.23 9.83 82.23 9.83 65.27"/>
      <path class="cls-2" d="M48.37,82.55h-2.07c-6.9,0-10.35-2.01-10.35-6.02v-.23h7.11c.12,1.6,1.54,2.39,4.24,2.39h.2c.87,0,1.59-.04,2.17-.12.58-.08,1-.21,1.28-.36.27-.16.46-.33.56-.5.1-.17.15-.38.15-.6v-.02c0-.32-.08-.57-.24-.76-.16-.19-.54-.36-1.14-.5-.6-.14-1.47-.23-2.61-.26l-3.15-.09c-5.55-.15-8.32-1.85-8.32-5.11v-.21c0-.59.08-1.13.25-1.61.17-.48.47-.95.91-1.4s1.02-.83,1.73-1.14c.71-.3,1.65-.55,2.82-.74,1.16-.19,2.51-.29,4.05-.29h2.03c6.87,0,10.3,1.79,10.3,5.36v.18h-7.04c-.14-1.2-1.5-1.8-4.1-1.8h-.23c-1.06,0-1.89.07-2.46.19-.58.13-.93.27-1.07.43-.14.16-.21.37-.21.63v.02c0,.26.08.47.24.64.16.17.52.32,1.08.44.56.13,1.35.2,2.37.22l3.05.07c3.21.09,5.5.54,6.89,1.33,1.38.8,2.07,2.06,2.07,3.77v.32c0,.62-.08,1.19-.23,1.7-.15.51-.46,1.03-.91,1.55-.46.52-1.06.96-1.81,1.32-.75.36-1.77.65-3.05.87s-2.79.33-4.5.33"/>
      <polygon class="cls-2" points="67.8 82.23 67.8 69.9 60.48 69.9 60.48 65.27 81.59 65.27 81.59 69.9 74.27 69.9 74.27 82.23 67.8 82.23"/>
      <g>
        <path class="cls-2" d="M90.93,69.4v2.92h7.43c1.31,0,1.96-.49,1.96-1.46v-.02c0-.96-.65-1.44-1.96-1.44h-7.43ZM90.93,76.42v5.81h-6.47v-16.96h15.41c4.76,0,7.14,1.45,7.14,4.35v.25c0,.58-.11,1.1-.34,1.57-.23.47-.53.85-.9,1.14-.37.29-.74.52-1.09.68-.36.17-.72.3-1.08.39,1.08.24,1.93.71,2.55,1.4.62.69.93,1.57.93,2.63v2.51c0,.88.1,1.52.32,1.91v.11h-6.61c-.14-.15-.21-.45-.21-.89v-1.98c0-1-.26-1.74-.79-2.22-.52-.48-1.41-.72-2.65-.72h-6.2Z"/>
        <path class="cls-2" d="M109.81,73.36v-8.09h6.5v7.59c0,.58.08,1.11.23,1.61.15.49.4.97.75,1.44.35.46.88.83,1.61,1.1.72.27,1.59.41,2.61.41s1.86-.14,2.58-.41c.71-.27,1.25-.64,1.61-1.1.36-.46.61-.94.76-1.44.15-.49.23-1.03.23-1.61v-7.59h6.48v8.09c0,.76-.08,1.51-.23,2.23-.15.73-.47,1.53-.96,2.39-.49.87-1.12,1.62-1.89,2.26-.78.64-1.86,1.17-3.26,1.61-1.4.43-3.01.65-4.83.65h-.91c-1.89,0-3.53-.22-4.95-.65-1.41-.43-2.51-.97-3.29-1.61-.78-.64-1.41-1.39-1.89-2.27-.48-.87-.79-1.67-.92-2.38-.14-.71-.2-1.46-.2-2.23"/>
      </g>
      <polygon class="cls-2" points="136.35 82.23 136.35 65.27 145.24 65.27 150.43 74.8 155.72 65.27 164.25 65.27 164.25 82.23 157.84 82.23 157.84 71.65 151.89 82.23 148.59 82.23 142.66 71.65 142.66 82.23 136.35 82.23"/>
      <rect class="cls-2" x="167.62" y="65.27" width="6.45" height="16.96"/>
      <polygon class="cls-2" points="177.45 65.27 184.7 65.27 194.55 74.91 194.55 65.27 200.97 65.27 200.97 82.23 194.5 82.23 183.88 71.95 183.88 82.23 177.45 82.23 177.45 65.27"/>
      <rect class="cls-2" x="204.35" y="65.27" width="6.45" height="16.96"/>
      <polygon class="cls-2" points="214.17 65.27 221.42 65.27 231.27 74.91 231.27 65.27 237.7 65.27 237.7 82.23 231.22 82.23 220.6 71.95 220.6 82.23 214.17 82.23 214.17 65.27"/>
      <path class="cls-2" d="M252.47,82.55h-.52c-1.78,0-3.36-.19-4.74-.56s-2.48-.84-3.3-1.41c-.82-.57-1.5-1.25-2.03-2.03-.53-.78-.89-1.54-1.08-2.28-.19-.74-.28-1.49-.28-2.27v-.64c0-.8.09-1.57.27-2.29.18-.72.54-1.47,1.08-2.23.54-.77,1.24-1.43,2.1-1.98.86-.55,2.02-1.01,3.49-1.37,1.46-.36,3.16-.54,5.07-.54h.89c1.97,0,3.71.16,5.21.47,1.5.31,2.65.69,3.46,1.14.81.45,1.47.99,1.98,1.62.51.63.84,1.2.99,1.71.15.51.23,1.04.25,1.61v.02h-6.75c-.03-.14-.08-.27-.15-.4-.07-.13-.22-.31-.47-.54-.24-.23-.54-.42-.9-.58-.36-.16-.89-.3-1.59-.43-.7-.13-1.5-.19-2.39-.19-3.91,0-5.86,1.4-5.86,4.19v.25c0,1.2.48,2.21,1.44,3.04.96.83,2.42,1.24,4.38,1.24.84,0,1.6-.06,2.28-.17.68-.11,1.23-.25,1.65-.42.42-.17.78-.35,1.07-.55.3-.2.5-.38.62-.55.11-.17.17-.31.17-.43h-5.95v-3.31h12.56v9.55h-4.08c-.18-.9-.45-1.68-.8-2.35-1.61,1.78-4.3,2.67-8.07,2.67"/>
    </g>
  </g>
</svg>